<svg width="180" height="130" viewBox="0 0 180 130" fill="none" xmlns="http://www.w3.org/2000/svg">
<g clip-path="url(#clip0)">
<path d="M127.128 68.4554L128.901 66.1362L127.128 68.4554Z" fill="black"/>
<path d="M87.937 63.7685L89.7093 65.1254L87.937 63.7685Z" fill="black"/>
<path d="M126.228 69.6323L119.901 64.7931L112.237 70.6569L104.58 64.7931L96.93 70.6569L89.7092 65.1254L96.93 70.6569L104.58 64.7931L112.237 70.6569L119.901 64.7931L126.228 69.6323L127.128 68.4554L126.228 69.6323Z" fill="black"/>
<path d="M126.471 71.4461L125.446 70.6569L119.901 66.42L113.026 71.6815L112.237 72.2838L111.455 71.6815L104.58 66.42L97.7123 71.6815L96.93 72.2838L96.1408 71.6815L88.92 66.15L87.937 67.4446L96.93 74.3261L104.58 68.4623L112.237 74.3261L119.901 68.4623L126.228 73.3085L128.901 69.8123L128.153 69.2446L127.253 70.4215L126.471 71.4461Z" fill="black"/>
<path d="M96.93 70.6569L104.58 64.7931L112.237 70.6569L119.901 64.7931L126.228 69.6323L127.128 68.4554L128.901 66.1361L119.901 59.2546L112.237 65.1185L104.58 59.2546L96.93 65.1185L90.6093 60.2792L87.937 63.7685L89.7093 65.1254L96.93 70.6569Z" fill="black"/>
<path d="M127.128 68.4554L126.228 69.6323L119.901 64.7861L112.237 70.65L104.58 64.7861L96.9231 70.6569L89.7023 65.1185L87.93 63.7338L90.6023 60.2723L96.9231 65.1185L104.573 59.2546L112.23 65.1185L119.894 59.2546L128.894 66.1361L127.128 68.4554Z" fill="black"/>
<path d="M165.815 40.6661C162.032 40.6661 158.965 43.7305 158.961 47.5131V65.9008H152.495V67.3684H160.415V49.7977C160.426 45.5698 163.851 42.1452 168.078 42.1338C168.331 42.136 168.583 42.1521 168.833 42.1823V41.3654C167.892 40.9091 166.86 40.6701 165.815 40.6661Z" fill="black"/>
<path d="M178.574 38.4161V65.9008H171.914V67.3684H180V40.1538C179.578 39.5326 179.101 38.951 178.574 38.4161Z" fill="black"/>
<path d="M174.462 35.5639C172.338 33.9186 169.733 33.0162 167.047 32.9954C164.356 32.9553 161.772 34.0452 159.923 36C159.594 36.3375 159.284 36.6935 158.995 37.0662L157.957 38.4508L157.223 35.4185L156.87 33.9508H151.048V64.2669H157.341V47.5131C157.345 42.8309 161.139 39.0361 165.822 39.0323C167.302 39.0375 168.757 39.4238 170.045 40.1539L170.46 40.3823V64.2669H176.947V38.1254C176.25 37.1529 175.413 36.2896 174.462 35.5639Z" fill="black"/>
<path d="M137.707 65.9008V67.3685H146.693V34.6777H145.239V65.9008H137.707Z" fill="black"/>
<path d="M137.707 29.25V30.7177H146.693V22.1054H145.239V29.25H137.707Z" fill="black"/>
<path d="M136.26 33.21V64.2669H137.707H143.605V34.6777V33.21H136.26Z" fill="black"/>
<path d="M136.26 20.6377V27.6162H137.707H143.605V22.1054V20.6377H136.26Z" fill="black"/>
<path d="M10.6893 1.51616H9.23541V39.4408H10.6893V1.51616Z" fill="black"/>
<path d="M34.0131 51.0231V42.5354H32.5662V49.5554H1.48157V51.0231H34.0131Z" fill="black"/>
<path d="M10.6754 41.0746H7.59463L7.60848 1.51615V0.0484619H0.02771V47.9285H1.48156H30.9323V42.5354V41.0746H10.6754Z" fill="black"/>
<path d="M107.889 49.5554L109.135 51.0231H116.695H120.939V42.8885H119.485V49.5554H107.889Z" fill="black"/>
<path d="M113.338 24.8054V39.7938H114.785V39.3577V26.2731H123.065V18.1385H121.611V24.8054H113.338Z" fill="black"/>
<path d="M114.785 8.23846H113.331V15.0369H114.785V8.23846Z" fill="black"/>
<path d="M114.785 16.6708H111.704V8.23846V6.77077H105.203V16.6708H99.8931V23.1715H101.347H104.497V26.2731V44.6954L105.944 46.3985L107.245 47.9285H117.858V42.8885V41.4277H114.785H111.704V23.1715H119.977V18.1385V16.6708H114.785Z" fill="black"/>
<path d="M83.5616 37.5231L78.5977 35.64C76.4394 34.8919 74.5023 33.6164 72.9623 31.9292C74.1531 34.3246 76.3616 36.1177 79.6223 37.3431L84.5862 39.2262C85.0347 39.3943 85.4659 39.6052 85.8739 39.8562C85.8776 39.8147 85.8776 39.773 85.8739 39.7315C85.9016 39.4062 85.9016 38.4162 83.5616 37.5231Z" fill="black"/>
<path d="M83.1877 24.1061C82.2669 24.1061 81.1938 24.3969 81.1938 25.2208C81.1938 25.7469 81.3808 26.4184 82.7308 26.9861C83.0146 26.1138 84.0185 25.6015 85.4515 25.6015C85.5554 25.6015 85.6454 25.6361 85.7423 25.6431C85.1743 24.7632 84.2311 24.1957 83.1877 24.1061Z" fill="black"/>
<path d="M89.6677 29.1323L89.8962 29.7139L96.1962 25.8785C95.8376 25.194 95.4255 24.5389 94.9639 23.9192L88.83 27.6923C89.1568 28.143 89.4374 28.6255 89.6677 29.1323Z" fill="black"/>
<path d="M83.7069 50.6215C81.1769 50.6673 78.6667 50.1667 76.3477 49.1539C78.3 50.6492 81.3739 52.11 85.9777 52.11C93.1639 52.11 98.3769 47.9562 98.3769 42.2239C98.4685 39.9281 97.7036 37.6803 96.2308 35.9169C96.7025 37.1977 96.9371 38.5537 96.9231 39.9185C96.9231 46.1215 91.3846 50.6215 83.7069 50.6215Z" fill="black"/>
<path d="M92.0769 32.94C90.9204 32.083 89.6476 31.3953 88.2969 30.8977L83.1185 28.89L82.2946 28.5715C80.4808 27.8792 79.5254 26.7438 79.5254 25.2208C79.5254 23.5731 80.9862 22.4515 83.1531 22.4515C85.9777 22.4515 87.5354 25.2208 87.9992 26.2108L93.8631 22.6454C92.9558 21.1839 91.7815 19.9063 90.4015 18.8792C88.1307 17.1509 85.349 16.2278 82.4954 16.2554C75.9808 16.2554 71.9515 20.5685 71.9515 24.5631C71.9475 25.4968 72.0614 26.4272 72.2908 27.3323C73.0662 30.4685 75.2746 32.6631 79.1377 34.1169L84.1431 36C86.3931 36.8585 87.5285 38.0769 87.5285 39.7315C87.5241 40.1999 87.3951 40.6587 87.1546 41.0608C86.67 41.8569 85.5762 42.6669 83.1185 42.6669C82.652 42.6664 82.1872 42.6106 81.7339 42.5008C80.6678 42.2502 79.7024 41.6831 78.9646 40.8738C78.4488 40.3127 78.0425 39.6599 77.7669 38.9492L71.2039 42.1408C71.5577 42.8832 71.9993 43.5804 72.5192 44.2177C72.8526 44.6444 73.2183 45.0448 73.6131 45.4154C75.3369 47.0423 78.4592 48.9808 83.6792 48.9808C90.3946 48.9808 95.2685 45.1661 95.2685 39.9115C95.2962 36.5054 93.9323 34.3869 92.0769 32.94Z" fill="black"/>
<path d="M50.7739 50.6216C48.1196 50.6185 45.5001 50.0175 43.11 48.8631C49.8465 53.7506 59.1334 53.031 65.0364 47.164C70.9395 41.2971 71.7161 32.0148 66.87 25.2485C67.9941 27.6103 68.5783 30.1928 68.58 32.8085C68.5724 42.6405 60.6059 50.6101 50.7739 50.6216Z" fill="black"/>
<path d="M53.0446 27.4915C53.8657 27.5023 54.6795 27.6473 55.4538 27.9208C52.8214 25.2692 48.5378 25.2537 45.8862 27.8861C43.2345 30.5186 43.2191 34.8022 45.8515 37.4538C45.5861 36.6946 45.4458 35.8973 45.4362 35.0931C45.4438 30.8953 48.8469 27.4953 53.0446 27.4915Z" fill="black"/>
<path d="M60.2308 19.7169C54.1719 15.3534 45.9123 15.7094 40.2514 20.5782C34.5905 25.4469 33.0026 33.5603 36.4105 40.2038C39.8183 46.8474 47.3343 50.2909 54.5912 48.5334C61.848 46.7759 66.9556 40.2751 66.9462 32.8085C66.9557 27.6156 64.454 22.7386 60.2308 19.7169ZM42.3554 32.8085C42.363 28.6932 45.3447 25.1865 49.4053 24.5175C53.4658 23.8484 57.4149 26.2131 58.7424 30.1085C59.0406 30.9774 59.1927 31.8898 59.1924 32.8085C59.1885 37.4574 55.4228 41.2262 50.7739 41.2338C49.8304 41.233 48.8939 41.0715 48.0047 40.7562C44.6241 39.5764 42.3585 36.3889 42.3554 32.8085Z" fill="black"/>
<path d="M12.8285 72.5469H1.48157V74.0146H12.8285V72.5469Z" fill="black"/>
<path d="M39.6762 65.5269H38.2223V72.5469H23.7946V113.566H15.9092V115.034H25.2485V74.0146H39.6762V65.5269Z" fill="black"/>
<path d="M0.02771 64.0592V70.9131H1.48156H14.4554V74.0146V111.932H15.9092H22.1608V70.9131H36.5885V65.5269V64.0592H0.02771Z" fill="black"/>
<path d="M93.3854 95.6631C94.9879 94.3414 96.4962 92.9095 97.8993 91.3777V82.1285H96.0785V89.7439L95.8708 89.9723C94.3904 91.6493 92.7691 93.1965 91.0247 94.5969L101.299 113.538H91.5023L92.2985 115.006H103.846L93.3854 95.6631Z" fill="black"/>
<path d="M79.7054 66.9254H78.2308V90.5677C78.7292 90.3669 79.2069 90.1246 79.6846 89.8754L79.7054 66.9254Z" fill="black"/>
<path d="M78.2308 101.008V113.538H71.01V115.006H79.7054V102.655C80.837 102.366 81.9511 102.013 83.0423 101.596L82.0315 99.6923C80.7964 100.218 79.5265 100.657 78.2308 101.008Z" fill="black"/>
<path d="M88.9131 94.1539L89.4531 93.7315C91.2515 92.3444 92.922 90.799 94.4446 89.1139V80.6608H87.3762V86.3585L87.1338 86.6008C84.9727 88.7163 82.4588 90.4383 79.7054 91.6892C79.0477 91.9869 78.39 92.2777 77.7046 92.52L76.6246 92.8939V65.4577H69.5562V111.932H76.6246V99.7339L77.2408 99.5815C78.9025 99.1794 80.5245 98.6279 82.0869 97.9339L82.7792 97.6154L84.6069 100.994L90.5469 111.932H98.5915L88.9131 94.1539Z" fill="black"/>
<path d="M132.923 82.1285C130.008 91.35 126.402 102.053 123.958 109.308C123.265 111.385 122.677 113.116 122.241 114.425C118.149 126.692 112.548 127.71 106.754 127.71H104.746V129.178H108.99C114.861 129.178 119.88 127.904 123.702 116.446C125.778 110.298 131.199 94.3685 135.021 82.1285H132.923Z" fill="black"/>
<path d="M117.685 96.0092L112.368 82.1285H110.596H110.105L116.792 99.0623L117.685 96.0092Z" fill="black"/>
<path d="M123.875 80.6608L118.398 99.3531L117.014 104.061L108.346 82.1008L107.765 80.6331H100.066L113.538 112.715L113.448 112.998C111.219 119.922 106.525 119.922 104.961 119.922H103.299V126.062H106.761C112.168 126.062 116.945 125.148 120.697 113.892C121.133 112.583 121.722 110.838 122.421 108.775C124.823 101.652 128.333 91.2115 131.22 82.1146L131.684 80.6469L123.875 80.6608Z" fill="black"/>
<path d="M63 89.2523C66.2192 96.0588 64.7978 104.155 59.4527 109.458C54.1077 114.761 46.0001 116.119 39.2192 112.846C45.9534 117.716 55.2227 116.994 61.122 111.141C67.0213 105.288 67.8161 96.0246 63 89.2523Z" fill="black"/>
<path d="M51.57 91.9315C48.9158 89.408 44.7361 89.4524 42.1361 92.0318C39.5361 94.6112 39.4585 98.7904 41.9608 101.465C41.6953 100.705 41.5551 99.9081 41.5454 99.1039C41.5454 94.898 44.955 91.4885 49.1608 91.4885C49.983 91.5005 50.7974 91.6503 51.57 91.9315Z" fill="black"/>
<path d="M63.0623 96.8192C63.0509 87.9006 55.8156 80.6777 46.897 80.6816C37.9783 80.6854 30.7492 87.9144 30.7454 96.8331C30.7416 105.752 37.9644 112.987 46.8831 112.998C51.1769 113.008 55.2975 111.306 58.3337 108.27C61.3699 105.234 63.0715 101.113 63.0623 96.8192ZM38.4646 96.8192C38.4889 92.7104 41.4758 89.2193 45.5314 88.5597C49.587 87.9 53.5264 90.2645 54.8516 94.1538C55.1498 95.0228 55.3019 95.9351 55.3016 96.8538C55.2712 101.484 51.5132 105.223 46.8831 105.231C45.9396 105.23 45.0031 105.068 44.1139 104.753C40.7394 103.573 38.4756 100.394 38.4646 96.8192Z" fill="black"/>
<path d="M167.538 96.8192C167.547 102.934 164.409 108.624 159.233 111.88C154.057 115.136 147.57 115.501 142.062 112.846C148.801 117.718 158.077 116.99 163.974 111.127C169.872 105.264 170.654 95.9924 165.822 89.2246C166.948 91.5982 167.534 94.1919 167.538 96.8192Z" fill="black"/>
<path d="M151.989 91.5023C152.813 91.5092 153.63 91.6543 154.405 91.9315C151.751 89.408 147.571 89.4524 144.971 92.0318C142.371 94.6112 142.294 98.7904 144.796 101.465C144.002 99.1535 144.38 96.6005 145.811 94.6191C147.241 92.6377 149.546 91.4753 151.989 91.5023Z" fill="black"/>
<path d="M159.182 83.7277C153.123 79.3642 144.864 79.7202 139.203 84.5889C133.542 89.4577 131.954 97.571 135.362 104.215C138.77 110.858 146.286 114.302 153.543 112.544C160.799 110.787 165.907 104.286 165.898 96.8192C165.907 91.6264 163.405 86.7494 159.182 83.7277ZM141.3 96.8192C141.308 92.7039 144.289 89.1973 148.35 88.5283C152.41 87.8592 156.359 90.2239 157.687 94.1192C157.988 94.9878 158.142 95.9002 158.144 96.8192C158.013 101.377 154.281 105.003 149.722 105.003C145.163 105.003 141.431 101.377 141.3 96.8192Z" fill="black"/>
<path d="M62.8408 64.2184C62.9431 64.7665 62.9964 65.3225 63 65.88C62.9924 70.9277 58.9023 75.0177 53.8547 75.0254C53.2972 75.0217 52.7411 74.9684 52.1931 74.8661C54.6299 76.1842 57.5808 76.1217 59.9595 74.7015C62.3383 73.2814 63.7934 70.7135 63.7893 67.9431C63.7866 66.6421 63.4607 65.3622 62.8408 64.2184Z" fill="black"/>
<path d="M61.0892 62.8269C60.891 62.3409 60.6427 61.8769 60.3485 61.4423C58.5766 58.8314 55.4138 57.5351 52.3192 58.1513C49.2247 58.7675 46.7997 61.1765 46.1631 64.2669C45.9509 65.3132 45.9509 66.3914 46.1631 67.4377C46.4716 68.9412 47.2155 70.3208 48.3023 71.4046C48.6541 71.752 49.0364 72.0671 49.4446 72.3461C50.2986 72.9265 51.2583 73.3334 52.2692 73.5438C53.3155 73.7561 54.3937 73.7561 55.44 73.5438C56.9414 73.2296 58.3194 72.4865 59.4069 71.4046C61.6648 69.1448 62.3298 65.743 61.0892 62.7992V62.8269ZM56.1808 62.7231C56.8193 62.7231 57.3369 63.2407 57.3369 63.8792C57.3369 64.5177 56.8193 65.0354 56.1808 65.0354C55.5422 65.0354 55.0246 64.5177 55.0246 63.8792C55.0246 63.5726 55.1464 63.2785 55.3632 63.0617C55.5801 62.8449 55.8741 62.7231 56.1808 62.7231ZM51.5285 62.7231C52.1661 62.7269 52.6802 63.2462 52.6777 63.8838C52.6751 64.5214 52.1569 65.0366 51.5192 65.0354C50.8816 65.0341 50.3654 64.5168 50.3654 63.8792C50.3654 63.5714 50.4881 63.2763 50.7065 63.0592C50.9248 62.8422 51.2206 62.7212 51.5285 62.7231ZM53.8546 71.0654C52.0301 71.0715 50.3605 70.0407 49.5485 68.4069L50.6977 67.8461C50.7531 67.95 50.8223 68.04 50.8846 68.1369C50.9469 68.2338 50.9954 68.3377 51.0646 68.4277C51.735 69.2875 52.7643 69.7903 53.8546 69.7903C54.9449 69.7903 55.9743 69.2875 56.6446 68.4277C56.7138 68.3377 56.7623 68.2338 56.8246 68.1369C56.8869 68.04 56.9561 67.95 57.0115 67.8461L58.1608 68.4277C57.3429 70.0534 55.6745 71.0754 53.8546 71.0654Z" fill="black"/>
</g>
<defs>
<clipPath id="clip0">
<rect width="180" height="130" fill="white"/>
</clipPath>
</defs>
</svg>
